/* XPM */
static char *texture[] = {
/* columns rows colors chars-per-pixel */
"15 15 35 1 ",
"  c #6182D0",
". c #6182D1",
"X c #6283D2",
"o c #6283D3",
"O c #6385D5",
"+ c #6385D6",
"@ c #6486D7",
"# c #6486D8",
"$ c #6487D8",
"% c #6487D9",
"& c #6587D9",
"* c #6587DA",
"= c #6588DA",
"- c #6588DB",
"; c #6688DB",
": c #6689DB",
"> c #6689DC",
", c #6689DD",
"< c #668ADD",
"1 c #678ADD",
"2 c #678ADE",
"3 c #678ADF",
"4 c #678BDF",
"5 c #688BDF",
"6 c #688BE0",
"7 c #688CE0",
"8 c #688CE1",
"9 c #698CE2",
"0 c #698DE2",
"q c #698DE3",
"w c #6A8EE4",
"e c #6A8EE5",
"r c #6A8FE5",
"t c #6B8FE6",
"y c #6B90E7",
/* pixels */
"yr56o48r8r@O66y",
"884O@&@444@&47r",
"r4@4&&&&444#46r",
"64&84r66r486486",
"4688&64646##&q4",
"&;4&#4&;;4#-;4;",
"884O#46r66&46r4",
"5844.O#&&;#&664",
"464O.; .O;;;8rr",
"&;O&O4;4474;58;",
"6644;7@4774;488",
"r6&&;6&O;4#;r7;",
"rr&@8r5444$X;;$",
"6486r8567&;;444",
"#46486e684;4y87"
};
