/* XPM */
static char * texturedark_xpm[] = {
"15 15 17 1",
" 	c None",
".	c #5674BA",
"+	c #5573B8",
"@	c #5470B3",
"#	c #5470B4",
"$	c #4F69A9",
"%	c #5370B3",
"&	c #5470B5",
"*	c #506CAD",
"=	c #506BAB",
"-	c #516CAE",
";	c #5471B6",
">	c #526DB0",
",	c #516DB0",
"'	c #4E68A8",
")	c #4E68A7",
"!	c #5572B8",
".+@#$%&+&+*=##.",
"&&%=*-*%%%*-%#+",
"+%*%----%%%*%#+",
"#%-&%+##+%&#%&#",
"%#&&-#%#%#**-;%",
"->%-*%->>%*,>%>",
"&&%=*%#+##-%#+%",
"@&%%'=*-->*-##%",
"%#%='>)'=>>>&++",
"->=-=%>%%#%>@&>",
"##%%>#*%##%>%&&",
"+#-->#-=>%*>+#>",
"++-*&+@%%%*$>>*",
"#%&#+&@##->>%%%",
"*%#%&#!#&%>%.&#"};
